<svg height="512pt" viewBox="-34 0 512 512" width="512pt" xmlns="http://www.w3.org/2000/svg"><path d="m165.949219 502.269531-158.449219-41.695312v-409.148438l158.449219-41.695312zm0 0" fill="#f8e868"/><path d="m37.5 460.574219v-409.148438l128.449219-33.800781v-7.894531l-158.449219 41.695312v409.148438l158.449219 41.695312v-7.894531zm0 0" fill="#e39c2d"/><path d="m133.515625 256c0 10.535156-8.539063 19.070312-19.070313 19.070312-10.535156 0-19.074218-8.535156-19.074218-19.070312s8.539062-19.070312 19.074218-19.070312c10.53125 0 19.070313 8.535156 19.070313 19.070312zm0 0" fill="#e5ebf5"/><path d="m317.332031 223.988281h-151.382812v81.691407h151.382812v45.699218l113.894531-86.546875-113.894531-86.546875zm0 0" fill="#d15573"/><path d="m165.949219 223.988281h30v81.691407h-30zm0 0" fill="#c21d44"/><path d="m165.949219 56.832031h104.242187v167.15625h-104.242187zm0 0" fill="#e5ebf5"/><path d="m165.949219 305.679688h104.242187v149.488281h-104.242187zm0 0" fill="#e5ebf5"/><path d="m165.949219 56.832031h30v167.15625h-30zm0 0" fill="#cad8ea"/><path d="m165.949219 305.679688h30v149.488281h-30zm0 0" fill="#cad8ea"/><path d="m165.949219 305.679688h71.8125v117.058593h-71.8125zm0 0" fill="#72869e"/><path d="m165.949219 89.261719h71.8125v134.726562h-71.8125zm0 0" fill="#72869e"/><path d="m165.949219 305.679688h30v117.058593h-30zm0 0" fill="#536275"/><path d="m165.949219 89.261719h30v134.726562h-30zm0 0" fill="#536275"/><path d="m274.28125 272.023438h-15v-15h15zm-25 0h-15v-15h15zm0 0" fill="#fff"/><path d="m0 466.355469 173.449219 45.644531v-512l-173.449219 45.644531zm15-409.148438 143.449219-37.75v473.085938l-143.449219-37.75zm0 0"/><path d="m114.445312 229.425781c-14.652343 0-26.574218 11.921875-26.574218 26.574219s11.921875 26.574219 26.574218 26.574219c14.652344 0 26.570313-11.921875 26.570313-26.574219s-11.917969-26.574219-26.570313-26.574219zm0 38.144531c-6.382812 0-11.574218-5.1875-11.574218-11.570312s5.191406-11.570312 11.574218-11.570312c6.378907 0 11.570313 5.1875 11.570313 11.570312s-5.191406 11.570312-11.570313 11.570312zm0 0"/><path d="m262.691406 195.984375h15v-146.652344h-84.242187v15h69.242187zm0 0"/><path d="m262.691406 447.667969h-69.242187v15h84.242187v-128.988281h-15zm0 0"/><path d="m443.625 264.832031-133.792969-101.664062v53.320312h-116.382812v15h131.382812v-38.085937l94 71.429687-94 71.429688v-38.082031h-131.382812v15h116.382812v53.320312zm0 0"/><path d="m230.257812 195.984375h15.003907v-114.222656h-51.8125v15h36.808593zm0 0"/><path d="m245.261719 333.679688h-15.003907v81.558593h-36.808593v15h51.8125zm0 0"/></svg>